<?xml version="1.0" encoding="utf-8"?>
<!-- Generator: Adobe Illustrator 16.0.0, SVG Export Plug-In . SVG Version: 6.00 Build 0)  -->
<!DOCTYPE svg PUBLIC "-//W3C//DTD SVG 1.1//EN" "http://www.w3.org/Graphics/SVG/1.1/DTD/svg11.dtd">
<svg version="1.1" id="Capa_1" xmlns="http://www.w3.org/2000/svg" xmlns:xlink="http://www.w3.org/1999/xlink" x="0px" y="0px"
	 width="24px" height="24px" viewBox="0 0 24 24" enable-background="new 0 0 24 24" xml:space="preserve">
<g>
	<g>
		<path fill="#FFFFFF" d="M18.656,5.653h-7.678l-0.866-1.734C9.738,3.175,8.959,2.695,8.128,2.695H5.344
			c-1.224,0-2.219,0.995-2.219,2.219v12.204c0,1.223,0.995,2.219,2.219,2.219h1.85c0.407,0,0.738-0.332,0.738-0.74
			s-0.331-0.738-0.738-0.738h-1.85c-0.408,0-0.74-0.332-0.74-0.74V10.46h12.574c0.407,0,0.738-0.331,0.738-0.74
			c0-0.408-0.331-0.739-0.738-0.739H4.604V4.914c0-0.408,0.332-0.74,0.74-0.74h2.784c0.277,0,0.538,0.162,0.662,0.408l1.069,2.141
			c0.125,0.25,0.381,0.409,0.662,0.409h8.135c0.408,0,0.74,0.332,0.74,0.74v9.245c0,0.408-0.332,0.74-0.74,0.74H16.83
			c-0.408,0-0.739,0.33-0.739,0.738s0.331,0.74,0.739,0.74h1.826c1.224,0,2.219-0.996,2.219-2.219V7.872
			C20.875,6.648,19.88,5.653,18.656,5.653z"/>
	</g>
</g>
<g>
	<g>
		<path fill="#FFFFFF" d="M14.742,16.965c-0.289-0.291-0.758-0.291-1.047,0L12.74,17.92v-5.24c0-0.409-0.332-0.74-0.74-0.74
			s-0.74,0.332-0.74,0.74v5.24l-0.955-0.955c-0.289-0.291-0.758-0.291-1.047,0c-0.288,0.287-0.288,0.756,0,1.045l2.219,2.219
			c0.146,0.145,0.334,0.217,0.523,0.217s0.378-0.072,0.523-0.217l2.219-2.219C15.03,17.721,15.03,17.252,14.742,16.965z"/>
	</g>
</g>
</svg>
