<?xml version="1.0" encoding="utf-8"?>
<!-- Generator: Adobe Illustrator 16.0.0, SVG Export Plug-In . SVG Version: 6.00 Build 0)  -->
<!DOCTYPE svg PUBLIC "-//W3C//DTD SVG 1.1//EN" "http://www.w3.org/Graphics/SVG/1.1/DTD/svg11.dtd">
<svg version="1.1" id="Capa_1" xmlns="http://www.w3.org/2000/svg" xmlns:xlink="http://www.w3.org/1999/xlink" x="0px" y="0px"
	 width="24px" height="24px" viewBox="0 0 24 24" enable-background="new 0 0 24 24" xml:space="preserve">
<g>
	<g>
		<path fill="#FFFFFF" d="M22.363,19.507l-4.905-4.906c-0.731,1.137-1.698,2.104-2.835,2.835l4.905,4.905
			c0.783,0.783,2.053,0.783,2.835,0C23.146,21.559,23.146,20.289,22.363,19.507z"/>
		<path fill="#FFFFFF" d="M17.605,9.565c0-4.428-3.59-8.018-8.019-8.018c-4.427,0-8.018,3.59-8.018,8.018
			c0,4.427,3.591,8.018,8.018,8.018C14.016,17.583,17.605,13.992,17.605,9.565z M9.587,15.578c-3.315,0-6.013-2.697-6.013-6.013
			s2.697-6.014,6.013-6.014c3.316,0,6.014,2.698,6.014,6.014S12.903,15.578,9.587,15.578z"/>
		<path fill="#FFFFFF" d="M4.91,9.565h1.336c0-1.842,1.499-3.341,3.341-3.341V4.888C7.009,4.888,4.91,6.986,4.91,9.565z"/>
	</g>
</g>
</svg>
