<?xml version="1.0" encoding="utf-8"?>
<!-- Generator: Adobe Illustrator 16.0.0, SVG Export Plug-In . SVG Version: 6.00 Build 0)  -->
<!DOCTYPE svg PUBLIC "-//W3C//DTD SVG 1.1//EN" "http://www.w3.org/Graphics/SVG/1.1/DTD/svg11.dtd">
<svg version="1.1" id="Capa_1" xmlns="http://www.w3.org/2000/svg" xmlns:xlink="http://www.w3.org/1999/xlink" x="0px" y="0px"
	 width="24px" height="24px" viewBox="0 0 24 24" enable-background="new 0 0 24 24" xml:space="preserve">
<g>
	<path fill="#FFFFFF" d="M7.464,10.813c0.084-0.084,0.176-0.156,0.273-0.218l6.477-6.479c0.635-0.631,1.657-0.631,2.291,0
		c0.633,0.632,0.633,1.658,0,2.29l-5.578,5.58l5.606,5.607c0.634,0.632,0.634,1.656,0,2.289c-0.315,0.316-0.729,0.476-1.144,0.476
		c-0.416,0-0.83-0.158-1.146-0.476l-6.506-6.508c-0.098-0.063-0.189-0.133-0.273-0.218c-0.324-0.323-0.479-0.75-0.472-1.173
		C6.984,11.561,7.14,11.136,7.464,10.813z"/>
</g>
</svg>
