<?xml version="1.0" encoding="utf-8"?>
<!-- Generator: Adobe Illustrator 16.0.0, SVG Export Plug-In . SVG Version: 6.00 Build 0)  -->
<!DOCTYPE svg PUBLIC "-//W3C//DTD SVG 1.1//EN" "http://www.w3.org/Graphics/SVG/1.1/DTD/svg11.dtd">
<svg version="1.1" id="圖層_1" xmlns="http://www.w3.org/2000/svg" xmlns:xlink="http://www.w3.org/1999/xlink" x="0px" y="0px"
	 width="32px" height="32px" viewBox="0 0 32 32" enable-background="new 0 0 32 32" xml:space="preserve">
<g>
	<path fill="#FFFFFF" d="M30.521,1.874h-6.181v-0.93C24.341,0.422,23.918,0,23.397,0s-0.943,0.422-0.943,0.943v0.93h-5.511v-0.93
		C16.943,0.422,16.521,0,16,0c-0.521,0-0.943,0.422-0.943,0.943v0.93H9.78v-0.93C9.78,0.422,9.357,0,8.837,0
		C8.316,0,7.894,0.422,7.894,0.943v0.93H1.479c-0.521,0-0.943,0.422-0.943,0.943v21.314c0,0.521,0.422,0.943,0.943,0.943h5.79
		C8.196,29.038,11.757,32,16,32c4.242,0,7.805-2.962,8.732-6.926h5.789c0.521,0,0.943-0.422,0.943-0.943V2.817
		C31.465,2.296,31.043,1.874,30.521,1.874L30.521,1.874z M7.894,3.76v0.853c0,0.521,0.422,0.943,0.943,0.943
		c0.521,0,0.943-0.422,0.943-0.943V3.76h5.277v0.853c0,0.521,0.422,0.943,0.943,0.943c0.521,0,0.943-0.422,0.943-0.943V3.76h5.511
		v0.853c0,0.521,0.423,0.943,0.943,0.943s0.943-0.422,0.943-0.943V3.76h5.237v3.857H2.422V3.76H7.894z M16,30.113
		c-3.906,0-7.083-3.178-7.083-7.083s3.177-7.083,7.083-7.083c3.905,0,7.083,3.178,7.083,7.083S19.906,30.113,16,30.113L16,30.113z
		 M24.965,23.188c0.002-0.053,0.005-0.104,0.005-0.157c0-4.946-4.024-8.969-8.97-8.969c-4.946,0-8.97,4.023-8.97,8.969
		c0,0.053,0.003,0.104,0.004,0.157H2.421V9.504h27.157v13.683H24.965z"/>
	<path fill="#FFFFFF" d="M16.943,23.269v-4.563c0-0.521-0.422-0.943-0.943-0.943c-0.521,0-0.943,0.422-0.943,0.943v4.954
		c0,0.25,0.099,0.49,0.276,0.667l2.168,2.168c0.185,0.185,0.425,0.276,0.667,0.276c0.241,0,0.482-0.092,0.667-0.276
		c0.368-0.368,0.368-0.965,0-1.334L16.943,23.269z"/>
</g>
</svg>
