<?xml version="1.0" encoding="utf-8"?>
<!-- Generator: Adobe Illustrator 16.0.0, SVG Export Plug-In . SVG Version: 6.00 Build 0)  -->
<!DOCTYPE svg PUBLIC "-//W3C//DTD SVG 1.1//EN" "http://www.w3.org/Graphics/SVG/1.1/DTD/svg11.dtd">
<svg version="1.1" id="圖層_1" xmlns="http://www.w3.org/2000/svg" xmlns:xlink="http://www.w3.org/1999/xlink" x="0px" y="0px"
	 width="55px" height="55px" viewBox="0 0 55 55" enable-background="new 0 0 55 55" xml:space="preserve">
<circle fill="#87BA4C" cx="27.5" cy="27.5" r="27.5"/>
<g>
	<g>
		<path fill="#040000" d="M30.051,37.879c-0.145-0.146-0.344-0.229-0.549-0.229c-0.204,0-0.403,0.083-0.548,0.229
			c-0.146,0.145-0.229,0.344-0.229,0.548c0,0.205,0.083,0.404,0.229,0.549c0.145,0.145,0.344,0.228,0.548,0.228
			c0.205,0,0.404-0.083,0.549-0.228s0.228-0.344,0.228-0.549C30.278,38.223,30.195,38.023,30.051,37.879z"/>
	</g>
</g>
<g>
	<g>
		<path fill="#040000" d="M33.537,16.333h-0.01c-0.43,0-0.776,0.348-0.776,0.776s0.347,0.776,0.776,0.776h0.01
			c0.43,0,0.776-0.348,0.776-0.776S33.967,16.333,33.537,16.333z"/>
	</g>
</g>
<g>
	<g>
		<path fill="#040000" d="M42.784,16.333h-6.2c-0.428,0-0.775,0.348-0.775,0.776s0.348,0.776,0.775,0.776h6.2
			c0.427,0,0.775-0.348,0.775-0.776S43.211,16.333,42.784,16.333z"/>
	</g>
</g>
<g>
	<g>
		<path fill="#040000" d="M46.809,12.816h-9.388V9.648c0-0.992-0.807-1.799-1.8-1.799H24.624c-0.992,0-1.799,0.807-1.799,1.799
			v3.168h-9.388c-0.428,0-0.776,0.347-0.776,0.776v7.311c0,1.083,0.447,2.063,1.164,2.767v3.502c0,0.429,0.348,0.777,0.777,0.777
			c0.428,0,0.776-0.348,0.776-0.777v-2.569c0.367,0.116,0.758,0.18,1.164,0.18h2.949v0.001c0,1.755,1.427,3.183,3.182,3.183
			s3.182-1.428,3.182-3.183v-0.009h8.537v0.009c0,1.755,1.428,3.183,3.182,3.183s3.182-1.428,3.182-3.183v-0.009l2.947,0.005h0.003
			c0.4,0,0.791-0.061,1.163-0.178v12.271c0,0.428-0.348,0.775-0.776,0.775H32.813c-0.43,0-0.776,0.347-0.776,0.776
			s0.347,0.776,0.776,0.776h11.278c1.284,0,2.328-1.045,2.328-2.328V23.671c0.011-0.009,0.02-0.017,0.027-0.026
			c0.733-0.732,1.138-1.708,1.138-2.745v-7.308C47.585,13.164,47.238,12.816,46.809,12.816z M24.377,9.648
			c0-0.136,0.111-0.247,0.247-0.247h10.998c0.137,0,0.248,0.111,0.248,0.247v3.168H24.377V9.648z M24.302,24.785
			c0,0.899-0.731,1.63-1.63,1.63s-1.629-0.73-1.629-1.63V22.22h3.259V24.785z M39.203,24.785c0,0.899-0.731,1.63-1.63,1.63
			s-1.629-0.73-1.629-1.63V22.22h3.259V24.785z M46.033,20.9c0,0.622-0.243,1.207-0.684,1.647c-0.439,0.439-1.024,0.681-1.644,0.681
			c-0.001,0-0.001,0-0.001,0l-2.95-0.005v-1.546c0-0.557-0.452-1.009-1.008-1.009H35.4c-0.556,0-1.009,0.453-1.009,1.009v1.546
			h-8.537v-1.546c0-0.557-0.453-1.009-1.009-1.009h-4.346c-0.556,0-1.008,0.453-1.008,1.009v1.554h-2.949
			c-1.284,0-2.329-1.045-2.329-2.328v-6.535h31.82V20.9z"/>
	</g>
</g>
<g>
	<g>
		<path fill="#040000" d="M30.123,30.175c-0.507,0-0.92-0.343-0.92-0.764c0-0.422,0.413-0.763,0.92-0.763s0.919,0.341,0.919,0.763
			c0,0.429,0.348,0.776,0.776,0.776s0.776-0.348,0.776-0.776c0-1.022-0.712-1.892-1.696-2.197v-0.041
			c0-0.429-0.347-0.776-0.775-0.776c-0.43,0-0.776,0.347-0.776,0.776v0.041c-0.983,0.305-1.696,1.175-1.696,2.197
			c0,1.275,1.109,2.315,2.472,2.315c0.507,0,0.919,0.342,0.919,0.762c0,0.421-0.412,0.762-0.919,0.762s-0.92-0.341-0.92-0.762
			c0-0.428-0.348-0.775-0.776-0.775c-0.428,0-0.776,0.348-0.776,0.775c0,1.023,0.712,1.893,1.696,2.198
			c0.011,0.418,0.354,0.757,0.776,0.757s0.766-0.339,0.775-0.757c0.984-0.306,1.696-1.175,1.696-2.198
			C32.595,31.212,31.486,30.175,30.123,30.175z"/>
	</g>
</g>
<g>
	<g>
		<path fill="#040000" d="M17.318,33.615c-2.482,0-4.501,2.02-4.501,4.501c0,2.483,2.019,4.502,4.501,4.502
			c2.482,0,4.501-2.019,4.501-4.502C21.819,35.635,19.8,33.615,17.318,33.615z M17.318,41.066c-1.626,0-2.949-1.324-2.949-2.95
			s1.323-2.948,2.949-2.948c1.625,0,2.949,1.322,2.949,2.948S18.943,41.066,17.318,41.066z"/>
	</g>
</g>
<g>
	<g>
		<path fill="#040000" d="M26.785,36.564c0-0.383-0.278-0.707-0.655-0.766l-1.071-0.171l-0.511-1.231l0.637-0.877
			c0.224-0.309,0.19-0.735-0.08-1.005l-2.192-2.189c-0.27-0.27-0.695-0.304-1.004-0.079l-0.877,0.636l-1.232-0.51l-0.171-1.069
			c-0.06-0.378-0.385-0.654-0.766-0.654l0,0l-3.099,0.001c-0.381,0-0.706,0.278-0.765,0.655l-0.17,1.07l-1.231,0.511L12.72,30.25
			c-0.309-0.226-0.735-0.191-1.004,0.079l-2.19,2.191c-0.27,0.27-0.303,0.696-0.079,1.005l0.637,0.876l-0.51,1.233l-1.07,0.169
			c-0.376,0.061-0.654,0.386-0.654,0.768l0.001,3.098c0,0.383,0.278,0.706,0.655,0.767l1.07,0.17l0.511,1.231L9.45,42.713
			c-0.224,0.31-0.19,0.735,0.08,1.006l2.192,2.189c0.27,0.271,0.696,0.304,1.004,0.079l0.876-0.637l1.233,0.51l0.171,1.07
			c0.06,0.377,0.385,0.654,0.766,0.654l0,0l3.099-0.001c0.382,0,0.706-0.278,0.766-0.654l0.17-1.071l1.231-0.511l0.877,0.636
			c0.309,0.225,0.735,0.191,1.004-0.079l2.19-2.192c0.27-0.269,0.303-0.695,0.079-1.003l-0.637-0.878l0.511-1.23l1.069-0.171
			c0.377-0.062,0.655-0.386,0.655-0.768L26.785,36.564z M24.389,39.135c-0.268,0.043-0.493,0.222-0.596,0.47l-0.842,2.036
			c-0.103,0.248-0.069,0.534,0.089,0.753l0.502,0.691l-1.252,1.253l-0.693-0.502c-0.219-0.158-0.503-0.191-0.753-0.087l-2.034,0.843
			c-0.25,0.104-0.427,0.328-0.47,0.596l-0.133,0.844l-1.773,0.002l-0.135-0.845c-0.042-0.268-0.22-0.493-0.47-0.595l-2.036-0.843
			c-0.095-0.04-0.196-0.06-0.296-0.06c-0.162,0-0.322,0.051-0.457,0.147l-0.692,0.504l-1.254-1.254l0.502-0.692
			c0.158-0.219,0.192-0.502,0.089-0.754l-0.844-2.033c-0.104-0.249-0.328-0.427-0.595-0.469l-0.846-0.135l-0.001-1.772l0.844-0.135
			c0.267-0.043,0.493-0.221,0.596-0.469l0.842-2.037c0.103-0.247,0.069-0.533-0.089-0.752l-0.503-0.692l1.253-1.254l0.694,0.502
			c0.218,0.158,0.503,0.191,0.752,0.089l2.034-0.844c0.249-0.104,0.427-0.329,0.469-0.595l0.134-0.845l1.772-0.002l0.135,0.846
			c0.042,0.267,0.22,0.492,0.47,0.596l2.035,0.84c0.25,0.104,0.535,0.071,0.753-0.087l0.691-0.503l1.255,1.253l-0.503,0.693
			c-0.158,0.217-0.192,0.502-0.088,0.753l0.843,2.033c0.104,0.249,0.329,0.427,0.595,0.469l0.846,0.134L25.233,39L24.389,39.135z"/>
	</g>
</g>
</svg>
