<?xml version="1.0" encoding="utf-8"?>
<!-- Generator: Adobe Illustrator 16.0.0, SVG Export Plug-In . SVG Version: 6.00 Build 0)  -->
<!DOCTYPE svg PUBLIC "-//W3C//DTD SVG 1.1//EN" "http://www.w3.org/Graphics/SVG/1.1/DTD/svg11.dtd">
<svg version="1.1" id="Layer_1" xmlns="http://www.w3.org/2000/svg" xmlns:xlink="http://www.w3.org/1999/xlink" x="0px" y="0px"
	 width="656.066px" height="612px" viewBox="0 0 656.066 612" enable-background="new 0 0 656.066 612" xml:space="preserve">
<g>
	<g>
		<path fill="#FFFFFF" d="M508.051,11.053H148.433c-36.013,0-65.257,29.244-65.257,65.257V373.99l-41.248-41.25
			c-6.13-6.129-15.963-6.129-22.093,0c-6.13,6.131-6.13,15.963,0,22.094L87.902,422.9c3.064,3.064,7.023,4.597,11.11,4.597
			c4.086,0,8.044-1.532,11.11-4.597l68.067-68.066c6.129-6.131,6.129-15.963,0-22.094c-6.13-6.129-15.963-6.129-22.094,0
			l-41.376,41.377V76.31c0-18.772,15.196-33.969,33.969-33.969h359.49c18.771,0,33.968,15.197,33.968,33.969v43.42
			c0,8.684,7.024,15.708,15.708,15.708c8.686,0,15.708-7.024,15.708-15.708V76.31C573.178,40.425,543.934,11.053,508.051,11.053z"/>
		<path fill="#FFFFFF" d="M546.489,188.946l-68.067,68.066c-6.129,6.129-6.129,15.963,0,22.093c3.066,3.065,7.024,4.598,11.11,4.598
			c4.088,0,8.047-1.533,11.111-4.598l41.376-41.376v297.679c0,18.772-15.196,33.97-33.969,33.97H148.433
			c-18.772,0-33.969-15.197-33.969-33.97v-43.419c0-8.684-7.024-15.708-15.708-15.708s-15.708,7.024-15.708,15.708v43.419
			c0,36.013,29.244,65.257,65.256,65.257h359.49c36.012,0,65.255-29.244,65.255-65.257V237.729l41.378,41.376
			c6.129,6.13,15.964,6.13,22.093,0c6.13-6.129,6.13-15.963,0-22.093l-68.067-68.066
			C562.835,183.071,552.363,183.071,546.489,188.946z"/>
		<path fill="#FFFFFF" d="M328.242,167.491c-8.684,0-15.708,7.023-15.708,15.708v24.008h-2.043
			c-29.883,0-54.275,25.669-54.275,57.084c0,31.415,24.392,57.084,54.275,57.084h35.246c12.642,0,22.987,11.62,22.987,25.795
			c0,14.304-10.345,25.798-22.987,25.798h-63.342c-8.683,0-15.707,7.023-15.707,15.707s7.024,15.708,15.707,15.708h30.139v24.391
			c0,8.684,7.024,15.708,15.708,15.708c8.685,0,15.708-7.024,15.708-15.708v-24.519h2.299c0.127,0,0.255,0,0.383,0
			c29.627-0.384,53.508-25.924,53.508-57.085c0-31.542-24.392-57.083-54.274-57.083h-35.246c-12.643,0-22.988-11.622-22.988-25.796
			c0-14.175,10.345-25.796,22.988-25.796h62.192c8.684,0,15.708-7.024,15.708-15.708c0-8.684-7.024-15.708-15.708-15.708h-28.862
			v-24.008C343.822,174.515,336.927,167.491,328.242,167.491z"/>
	</g>
</g>
</svg>
