<?xml version="1.0" encoding="utf-8"?>
<!-- Generator: Adobe Illustrator 16.0.0, SVG Export Plug-In . SVG Version: 6.00 Build 0)  -->
<!DOCTYPE svg PUBLIC "-//W3C//DTD SVG 1.1//EN" "http://www.w3.org/Graphics/SVG/1.1/DTD/svg11.dtd">
<svg version="1.1" id="圖層_1" xmlns="http://www.w3.org/2000/svg" xmlns:xlink="http://www.w3.org/1999/xlink" x="0px" y="0px"
	 width="26px" height="26px" viewBox="0 0 26 26" enable-background="new 0 0 26 26" xml:space="preserve">
<g>
	<g>
		<path fill="#368F39" d="M25.492,22.02l-6.014-6.015c-0.896,1.394-2.081,2.579-3.475,3.475l6.014,6.015
			c0.961,0.96,2.517,0.96,3.475,0C26.452,24.536,26.452,22.979,25.492,22.02z"/>
		<path fill="#368F39" d="M19.659,9.83c0-5.429-4.401-9.83-9.83-9.83s-9.83,4.401-9.83,9.83s4.401,9.83,9.83,9.83
			S19.659,15.259,19.659,9.83z M9.829,17.203c-4.065,0-7.373-3.307-7.373-7.373c0-4.066,3.307-7.373,7.373-7.373
			c4.066,0,7.373,3.307,7.373,7.373C17.202,13.896,13.895,17.203,9.829,17.203z"/>
		<path fill="#368F39" d="M4.095,9.83h1.638c0-2.258,1.838-4.096,4.096-4.096V4.096C6.667,4.096,4.095,6.669,4.095,9.83z"/>
	</g>
</g>
</svg>
