<?xml version="1.0" encoding="utf-8"?>
<!-- Generator: Adobe Illustrator 16.0.0, SVG Export Plug-In . SVG Version: 6.00 Build 0)  -->
<!DOCTYPE svg PUBLIC "-//W3C//DTD SVG 1.1//EN" "http://www.w3.org/Graphics/SVG/1.1/DTD/svg11.dtd">
<svg version="1.1" id="Capa_1" xmlns="http://www.w3.org/2000/svg" xmlns:xlink="http://www.w3.org/1999/xlink" x="0px" y="0px"
	 width="447.674px" height="447.674px" viewBox="0 0 447.674 447.674" enable-background="new 0 0 447.674 447.674"
	 xml:space="preserve">
<g>
	<g>
		<path fill="#AADDE1" d="M182.725,379.151c-0.572-1.522-0.769-2.816-0.575-3.863c0.193-1.04-0.472-1.902-1.997-2.566
			c-1.524-0.664-2.285-1.191-2.285-1.566c0-0.381-1.094-0.668-3.284-0.855c-2.19-0.191-3.283-0.287-3.283-0.287h-3.71h-3.14H82.224
			c-12.562,0-23.316-4.47-32.264-13.422c-8.945-8.945-13.417-19.697-13.417-32.258V123.335c0-12.562,4.471-23.313,13.417-32.259
			c8.947-8.947,19.702-13.422,32.264-13.422h91.361c2.475,0,4.421-0.614,5.852-1.854c1.425-1.237,2.375-3.094,2.854-5.568
			c0.476-2.474,0.763-4.708,0.858-6.707c0.095-1.997,0.048-4.521-0.144-7.566c-0.189-3.044-0.284-4.947-0.284-5.712
			c0-2.474-0.905-4.611-2.712-6.423c-1.809-1.804-3.949-2.709-6.423-2.709H82.224c-22.647,0-42.016,8.042-58.101,24.125
			C8.042,81.323,0,100.688,0,123.338v200.994c0,22.647,8.042,42.019,24.123,58.095c16.085,16.092,35.453,24.133,58.101,24.133
			h91.365c2.475,0,4.422-0.621,5.852-1.854c1.426-1.239,2.375-3.094,2.854-5.571c0.476-2.471,0.763-4.716,0.858-6.707
			c0.095-1.999,0.049-4.518-0.144-7.563C182.818,381.817,182.725,379.915,182.725,379.151z"/>
		<path fill="#AADDE1" d="M442.248,210.989L286.935,55.67c-3.614-3.612-7.897-5.424-12.847-5.424s-9.233,1.812-12.852,5.424
			c-3.616,3.617-5.424,7.904-5.424,12.85v82.226H127.907c-4.952,0-9.233,1.812-12.851,5.424c-3.617,3.617-5.424,7.901-5.424,12.85
			v109.636c0,4.948,1.807,9.231,5.424,12.847c3.621,3.609,7.901,5.428,12.85,5.428h127.907v82.225c0,4.945,1.808,9.232,5.424,12.847
			c3.617,3.617,7.901,5.429,12.852,5.429c4.948,0,9.231-1.812,12.847-5.429L442.248,236.69c3.617-3.621,5.426-7.898,5.426-12.849
			C447.674,218.894,445.865,214.606,442.248,210.989z"/>
	</g>
</g>
</svg>
