<?xml version="1.0" encoding="utf-8"?>
<!-- Generator: Adobe Illustrator 16.0.0, SVG Export Plug-In . SVG Version: 6.00 Build 0)  -->
<!DOCTYPE svg PUBLIC "-//W3C//DTD SVG 1.1//EN" "http://www.w3.org/Graphics/SVG/1.1/DTD/svg11.dtd">
<svg version="1.1" id="Capa_1" xmlns="http://www.w3.org/2000/svg" xmlns:xlink="http://www.w3.org/1999/xlink" x="0px" y="0px"
	 width="484.01px" height="484.008px" viewBox="0 0 484.01 484.008" enable-background="new 0 0 484.01 484.008"
	 xml:space="preserve">
<g>
	<path fill="#31ABAF" d="M457.021,309.299l20.238-159.583L332.072,94.625l-45.974,21.953c-1.419,7.021-3.57,13.854-6.385,20.428
		l34.804-16.618l-14.369,154.663l0.804,8.287L194.91,299.333l-8.703,17.166l116.276-17.531l13.405,137.176l15.604-1.535
		l-13.487-137.97l1.358-0.214l121.573,15.404l0.295-2.377l18.371,154.283L332.993,434.51L168.24,465.899l-1.372-0.262
		l14.811-140.725l-0.099-0.855l-0.605-5.271l-20.301-40.076l2.864,25.353l-3.621,0.544L42.475,286.413l0.696-5.781L25.177,138.755
		l82.171,34.693l-6.859-13.521c-2.219-2.876-4.229-5.891-6.135-8.958L6.188,113.735L27.373,280.69l-0.398,3.321l-0.295-0.048
		L24.27,299.45l0.866,0.118l-18.1,152.038l161.226,30.229L332.7,450.518l145.121,33.49L457.021,309.299z M319.188,280.596
		l-2.707,0.396l-0.592-5.895l15.107-162.587l1.785-0.854l127.365,48.326l-17.295,136.264L319.188,280.596z M151.41,462.743
		L24.329,438.911l16.314-136.918l119.252,18.478l5.417-0.815l0.605,5.319L151.41,462.743z M183.018,322.799l-2.033-4.008
		l-0.165-1.479l5.394-0.814L183.018,322.799z M112.68,146.528l69.248,136.657l68.493-135.194
		c13.453-15.687,21.635-36.017,21.635-58.268C272.055,40.249,231.802,0,182.326,0c-49.473,0-89.71,40.249-89.71,89.723
		c0,21.542,7.637,41.316,20.33,56.805H112.68z M182.332,34.578c30.402,0,55.147,24.742,55.147,55.145
		c0,30.401-24.745,55.147-55.147,55.147c-30.401,0-55.145-24.746-55.145-55.147C127.188,59.32,151.924,34.578,182.332,34.578z"/>
</g>
</svg>
