<?xml version="1.0" encoding="utf-8"?>
<!-- Generator: Adobe Illustrator 16.0.0, SVG Export Plug-In . SVG Version: 6.00 Build 0)  -->
<!DOCTYPE svg PUBLIC "-//W3C//DTD SVG 1.1//EN" "http://www.w3.org/Graphics/SVG/1.1/DTD/svg11.dtd">
<svg version="1.1" id="Capa_1" xmlns="http://www.w3.org/2000/svg" xmlns:xlink="http://www.w3.org/1999/xlink" x="0px" y="0px"
	 width="32px" height="32px" viewBox="0 -16 32 32" enable-background="new 0 -16 32 32" xml:space="preserve">
<g>
	<g>
		<path fill="#31ABAF" d="M3.444-7.106c1.901,0,3.444-1.548,3.444-3.443S5.345-14,3.444-14C1.542-14,0-12.451,0-10.556
			S1.549-7.106,3.444-7.106z M3.444-12.399c1.02,0,1.843,0.83,1.843,1.843c0,1.013-0.83,1.843-1.843,1.843
			c-1.013,0-1.843-0.83-1.843-1.843C1.601-11.569,2.431-12.399,3.444-12.399z"/>
		<path fill="#31ABAF" d="M3.444,3.532c1.901,0,3.444-1.549,3.444-3.443c0-1.895-1.542-3.444-3.444-3.444
			C1.542-3.355,0-1.813,0,0.089S1.549,3.532,3.444,3.532z M3.444-1.754c1.02,0,1.843,0.83,1.843,1.843s-0.83,1.843-1.843,1.843
			c-1.013,0-1.843-0.823-1.843-1.843S2.431-1.754,3.444-1.754z"/>
		<path fill="#31ABAF" d="M3.444,14.178c1.901,0,3.444-1.549,3.444-3.444c0-1.901-1.549-3.443-3.444-3.443S0,8.839,0,10.733
			C0,12.629,1.549,14.178,3.444,14.178z M3.444,8.884c1.02,0,1.843,0.83,1.843,1.844c0,1.02-0.83,1.842-1.843,1.842
			c-1.013,0-1.843-0.829-1.843-1.842C1.601,9.714,2.431,8.884,3.444,8.884z"/>
		<path fill="#31ABAF" d="M11.495-9.752h19.702c0.444,0,0.804-0.359,0.804-0.804s-0.359-0.804-0.804-0.804H11.495
			c-0.445,0-0.804,0.359-0.804,0.804S11.05-9.752,11.495-9.752z"/>
		<path fill="#31ABAF" d="M11.495,0.893h19.702C31.641,0.893,32,0.533,32,0.089s-0.359-0.804-0.804-0.804H11.495
			c-0.445,0-0.804,0.359-0.804,0.804S11.05,0.893,11.495,0.893z"/>
		<path fill="#31ABAF" d="M11.495,11.53h19.702c0.444,0,0.804-0.359,0.804-0.803c0-0.445-0.359-0.805-0.804-0.805H11.495
			c-0.445,0-0.804,0.359-0.804,0.805C10.69,11.171,11.05,11.53,11.495,11.53z"/>
	</g>
</g>
</svg>
