<?xml version="1.0" encoding="utf-8"?>
<!-- Generator: Adobe Illustrator 16.0.0, SVG Export Plug-In . SVG Version: 6.00 Build 0)  -->
<!DOCTYPE svg PUBLIC "-//W3C//DTD SVG 1.1//EN" "http://www.w3.org/Graphics/SVG/1.1/DTD/svg11.dtd">
<svg version="1.1" id="Capa_1" xmlns="http://www.w3.org/2000/svg" xmlns:xlink="http://www.w3.org/1999/xlink" x="0px" y="0px"
	 width="32px" height="32px" viewBox="0 0 32 32" enable-background="new 0 0 32 32" xml:space="preserve">
<g>
	<path fill="#31ABAF" d="M16.389,14.678c0.092,0.092,0.216,0.144,0.347,0.144h14.729c0.139,0,0.271-0.06,0.364-0.163
		c0.093-0.104,0.138-0.242,0.123-0.38c-0.421-3.947-2.265-7.568-5.191-10.198C23.832,1.45,20.025,0,16.045,0
		C12.407,0,8.844,1.255,6.014,3.535C5.905,3.622,5.839,3.751,5.832,3.891C5.824,4.03,5.876,4.166,5.975,4.264L16.389,14.678z
		 M14.404,9.084l4.224-6.282c0.485,0.095,0.966,0.216,1.438,0.364l-4.623,6.958L14.404,9.084z M16.045,2.552
		c0.126,0,0.253,0.001,0.381,0.005l-3.437,5.112l-1.113-1.113l2.752-3.93C15.098,2.577,15.574,2.552,16.045,2.552z M11.806,3.233
		l-1.34,1.913L9.544,4.224c0.597-0.33,1.222-0.616,1.863-0.852C11.539,3.324,11.672,3.278,11.806,3.233z M24.328,12.27l2.689-4.047
		c0.185,0.261,0.361,0.531,0.529,0.807l-2.225,3.241H24.328L24.328,12.27z M27.703,12.27l0.844-1.229
		c0.16,0.403,0.301,0.814,0.421,1.229H27.703z M20.374,12.27l4.347-6.543c0.141,0.118,0.275,0.237,0.405,0.355
		c0.194,0.178,0.39,0.368,0.581,0.566l-3.736,5.622H20.374L20.374,12.27z M18.018,12.27H17.59l-0.73-0.731l5.07-7.633
		c0.413,0.201,0.816,0.423,1.203,0.664L18.018,12.27z"/>
	<path fill="#31ABAF" d="M14.28,15.901L4.309,5.93C4.21,5.831,4.074,5.779,3.936,5.787C3.796,5.794,3.667,5.86,3.58,5.969
		C1.3,8.799,0.045,12.361,0.045,16c0,4.982,2.26,9.593,6.2,12.648c0.087,0.066,0.193,0.102,0.301,0.102
		c0.029,0,0.059-0.002,0.088-0.008c0.137-0.024,0.257-0.106,0.33-0.225l7.388-12.012C14.47,16.312,14.441,16.062,14.28,15.901z
		 M11.325,16.555L6.1,25.049c-0.814-0.895-1.501-1.885-2.045-2.952C3.087,20.199,2.597,18.147,2.597,16
		c0-1.595,0.276-3.156,0.82-4.637c0.235-0.641,0.521-1.266,0.852-1.863L11.325,16.555z"/>
	<path fill="#31ABAF" d="M31.465,17.178H16.978c-0.171,0-0.329,0.088-0.418,0.234l-7.59,12.342
		c-0.073,0.118-0.092,0.262-0.053,0.396c0.04,0.133,0.134,0.243,0.259,0.303C11.33,31.479,13.641,32,16.045,32
		c3.98,0,7.787-1.449,10.717-4.082c2.926-2.629,4.77-6.25,5.191-10.197c0.014-0.139-0.031-0.277-0.124-0.381
		S31.604,17.178,31.465,17.178z"/>
</g>
</svg>
