<?xml version="1.0" encoding="utf-8"?>
<!-- Generator: Adobe Illustrator 16.0.0, SVG Export Plug-In . SVG Version: 6.00 Build 0)  -->
<!DOCTYPE svg PUBLIC "-//W3C//DTD SVG 1.1//EN" "http://www.w3.org/Graphics/SVG/1.1/DTD/svg11.dtd">
<svg version="1.1" id="圖層_1" xmlns="http://www.w3.org/2000/svg" xmlns:xlink="http://www.w3.org/1999/xlink" x="0px" y="0px"
	 width="26px" height="26px" viewBox="0 0 26 26" enable-background="new 0 0 26 26" xml:space="preserve">
<g>
	<g id="Layer_1_1_">
		<g>
			<path d="M19.643,20.698v1.737c0.525-0.034,1.08-0.281,1.08-0.86C20.723,20.979,20.115,20.803,19.643,20.698z"/>
			<path d="M18.131,18.617c0,0.439,0.326,0.694,0.985,0.824V17.87C18.518,17.888,18.131,18.24,18.131,18.617z"/>
			<path d="M19.361,14.881c-2.929,0-5.311,2.383-5.311,5.31s2.382,5.31,5.311,5.31c2.928,0,5.309-2.383,5.309-5.31
				S22.289,14.881,19.361,14.881z M19.643,23.332v0.543c0,0.149-0.114,0.298-0.265,0.298c-0.148,0-0.262-0.148-0.262-0.298v-0.543
				c-1.484-0.037-2.222-0.924-2.222-1.616c0-0.352,0.211-0.554,0.543-0.554c0.983,0,0.22,1.212,1.679,1.272V20.6
				c-1.301-0.235-2.09-0.807-2.09-1.781c0-1.193,0.992-1.808,2.09-1.844v-0.467c0-0.15,0.113-0.299,0.262-0.299
				c0.15,0,0.265,0.148,0.265,0.299v0.467c0.685,0.019,2.09,0.448,2.09,1.309c0,0.343-0.257,0.544-0.556,0.544
				c-0.571,0-0.563-0.938-1.534-0.957v1.669c1.159,0.245,2.185,0.588,2.185,1.939C21.827,22.655,20.95,23.251,19.643,23.332z"/>
		</g>
	</g>
</g>
<path d="M20.9,13.785V2.094H3.451v21.813h8.027c0.576,0,1.047,0.471,1.047,1.047S12.054,26,11.478,26H2.404
	c-0.576,0-1.047-0.471-1.047-1.047V1.047C1.357,0.471,1.828,0,2.404,0h19.543c0.576,0,1.047,0.471,1.047,1.047v12.738
	c0,0.576-0.471,1.047-1.047,1.047S20.9,14.361,20.9,13.785z"/>
<path d="M17.063,6.107H7.639c-0.576,0-1.047,0.471-1.047,1.047c0,0.576,0.471,1.047,1.047,1.047h9.423
	c0.575,0,1.047-0.471,1.047-1.047C18.109,6.579,17.638,6.107,17.063,6.107z"/>
<path d="M18.109,12.913c0-0.576-0.472-1.047-1.047-1.047H7.639c-0.576,0-1.047,0.471-1.047,1.047c0,0.576,0.471,1.047,1.047,1.047
	h9.423C17.638,13.96,18.109,13.489,18.109,12.913z"/>
<path d="M7.639,17.449c-0.576,0-1.047,0.472-1.047,1.047c0,0.576,0.471,1.047,1.047,1.047h2.792c0.576,0,1.047-0.471,1.047-1.047
	c0-0.575-0.471-1.047-1.047-1.047H7.639z"/>
</svg>
