<?xml version="1.0" encoding="utf-8"?>
<!-- Generator: Adobe Illustrator 16.0.0, SVG Export Plug-In . SVG Version: 6.00 Build 0)  -->
<!DOCTYPE svg PUBLIC "-//W3C//DTD SVG 1.1//EN" "http://www.w3.org/Graphics/SVG/1.1/DTD/svg11.dtd">
<svg version="1.1" id="圖層_1" xmlns="http://www.w3.org/2000/svg" xmlns:xlink="http://www.w3.org/1999/xlink" x="0px" y="0px"
	 width="26px" height="26px" viewBox="0 0 26 26" enable-background="new 0 0 26 26" xml:space="preserve">
<g>
	<g id="Layer_1_1_">
		<g>
			<path fill="#040000" d="M4.019,10.733H1.165C0.522,10.733,0,11.254,0,11.898v12.813c0,0.643,0.522,1.164,1.165,1.164h2.854
				c0.643,0,1.164-0.521,1.164-1.164V11.898C5.183,11.254,4.662,10.733,4.019,10.733z"/>
			<path fill="#040000" d="M10.833,14.227H7.979c-0.644,0-1.165,0.521-1.165,1.165v9.317c0,0.645,0.521,1.165,1.165,1.165h2.854
				c0.643,0,1.165-0.521,1.165-1.165v-9.317C11.998,14.748,11.476,14.227,10.833,14.227z"/>
			<path fill="#040000" d="M17.646,14.227h-2.854c-0.643,0-1.165,0.521-1.165,1.165v9.317c0,0.645,0.522,1.165,1.165,1.165h2.854
				c0.645,0,1.165-0.521,1.165-1.165v-9.317C18.811,14.748,18.29,14.227,17.646,14.227z"/>
			<path fill="#040000" d="M24.46,10.733h-2.854c-0.644,0-1.165,0.521-1.165,1.165v12.813c0,0.644,0.521,1.164,1.165,1.164h2.854
				c0.644,0,1.165-0.522,1.165-1.164V11.898C25.625,11.254,25.104,10.733,24.46,10.733z"/>
			<path fill="#040000" d="M13.152,7.267v2.097c0.635-0.042,1.303-0.34,1.303-1.038C14.455,7.605,13.723,7.394,13.152,7.267z"/>
			<path fill="#040000" d="M11.328,4.757c0,0.53,0.394,0.836,1.189,0.995V3.856C11.795,3.877,11.328,4.302,11.328,4.757z"/>
			<path fill="#040000" d="M12.813,0.25c-3.532,0-6.406,2.874-6.406,6.406c0,3.531,2.874,6.405,6.406,6.405s6.406-2.874,6.406-6.405
				C19.219,3.124,16.345,0.25,12.813,0.25z M13.152,10.445v0.656c0,0.181-0.139,0.36-0.319,0.36c-0.179,0-0.316-0.18-0.316-0.36
				v-0.656c-1.791-0.043-2.68-1.113-2.68-1.95c0-0.422,0.255-0.667,0.656-0.667c1.186,0,0.264,1.462,2.024,1.536V7.149
				C10.947,6.864,9.996,6.176,9.996,5c0-1.439,1.198-2.182,2.521-2.224V2.212c0-0.181,0.137-0.361,0.316-0.361
				c0.181,0,0.319,0.18,0.319,0.361v0.564c0.825,0.021,2.521,0.54,2.521,1.578c0,0.413-0.309,0.656-0.669,0.656
				c-0.689,0-0.68-1.132-1.852-1.154v2.013c1.398,0.297,2.636,0.709,2.636,2.341C15.788,9.629,14.729,10.348,13.152,10.445z"/>
		</g>
	</g>
</g>
</svg>
