<?xml version="1.0" encoding="utf-8"?>
<!-- Generator: Adobe Illustrator 16.0.0, SVG Export Plug-In . SVG Version: 6.00 Build 0)  -->
<!DOCTYPE svg PUBLIC "-//W3C//DTD SVG 1.1//EN" "http://www.w3.org/Graphics/SVG/1.1/DTD/svg11.dtd">
<svg version="1.1" id="圖層_1" xmlns="http://www.w3.org/2000/svg" xmlns:xlink="http://www.w3.org/1999/xlink" x="0px" y="0px"
	 width="26px" height="26px" viewBox="0 0 26 26" enable-background="new 0 0 26 26" xml:space="preserve">
<g>
	<g id="Layer_1_1_">
		<g>
			<path fill="#FFFFFF" d="M13.476,13.943v4.092c1.239-0.082,2.542-0.663,2.542-2.026C16.018,14.603,14.589,14.191,13.476,13.943z"
				/>
			<path fill="#FFFFFF" d="M9.916,9.046c0,1.034,0.769,1.632,2.32,1.942v-3.7C10.828,7.329,9.916,8.157,9.916,9.046z"/>
			<path fill="#FFFFFF" d="M12.813,0.25c-6.893,0-12.501,5.608-12.501,12.501c0,6.89,5.608,12.499,12.501,12.499
				c6.893,0,12.501-5.608,12.501-12.499C25.313,5.858,19.705,0.25,12.813,0.25z M13.476,20.145v1.279
				c0,0.353-0.271,0.704-0.623,0.704c-0.349,0-0.617-0.352-0.617-0.704v-1.279c-3.494-0.085-5.23-2.173-5.23-3.806
				c0-0.824,0.499-1.302,1.28-1.302c2.314,0,0.515,2.854,3.95,2.997v-4.32c-3.064-0.557-4.92-1.9-4.92-4.194
				c0-2.809,2.337-4.258,4.92-4.339V4.079c0-0.353,0.268-0.704,0.617-0.704c0.353,0,0.623,0.352,0.623,0.704V5.18
				c1.61,0.042,4.919,1.054,4.919,3.08c0,0.806-0.603,1.281-1.306,1.281c-1.346,0-1.326-2.21-3.613-2.253v3.928
				c2.729,0.58,5.144,1.385,5.144,4.568C18.619,18.553,16.554,19.956,13.476,20.145z"/>
		</g>
	</g>
</g>
</svg>
